<svg version="1.1" xmlns="http://www.w3.org/2000/svg" xmlns:xlink="http://www.w3.org/1999/xlink" width="136.74804" height="274.30025" viewBox="0,0,136.74804,274.30025"><defs><linearGradient x1="240.00006" y1="175.50003" x2="240.00006" y2="307.50003" gradientUnits="userSpaceOnUse" id="color-1"><stop offset="0" stop-color="#000000"></stop><stop offset="1" stop-color="#595959"></stop></linearGradient><linearGradient x1="267.23798" y1="235.07267" x2="244.30621" y2="235.07267" gradientUnits="userSpaceOnUse" id="color-2"><stop offset="0" stop-color="#1a0000"></stop><stop offset="1" stop-color="#800000"></stop></linearGradient><linearGradient x1="250.92923" y1="260.50004" x2="246.98743" y2="260.50004" gradientUnits="userSpaceOnUse" id="color-3"><stop offset="0" stop-color="#1a0000"></stop><stop offset="1" stop-color="#800000"></stop></linearGradient><linearGradient x1="244.48586" y1="228.00825" x2="238.55745" y2="228.00825" gradientUnits="userSpaceOnUse" id="color-4"><stop offset="0" stop-color="#1a0000"></stop><stop offset="1" stop-color="#800000"></stop></linearGradient><linearGradient x1="235.95743" y1="236.90001" x2="233.45743" y2="236.90001" gradientUnits="userSpaceOnUse" id="color-5"><stop offset="0" stop-color="#1a0000"></stop><stop offset="1" stop-color="#800000"></stop></linearGradient><linearGradient x1="255.10743" y1="219.20001" x2="252.60743" y2="219.20001" gradientUnits="userSpaceOnUse" id="color-6"><stop offset="0" stop-color="#1a0000"></stop><stop offset="1" stop-color="#800000"></stop></linearGradient><linearGradient x1="245.95743" y1="245.40001" x2="243.45743" y2="245.40001" gradientUnits="userSpaceOnUse" id="color-7"><stop offset="0" stop-color="#1a0000"></stop><stop offset="1" stop-color="#800000"></stop></linearGradient><linearGradient x1="283.25915" y1="39.20564" x2="277.85794" y2="116.91654" gradientUnits="userSpaceOnUse" id="color-8"><stop offset="0" stop-color="#333333"></stop><stop offset="1" stop-color="#000000"></stop></linearGradient><linearGradient x1="201.23929" y1="39.21801" x2="201.50622" y2="116.97358" gradientUnits="userSpaceOnUse" id="color-9"><stop offset="0" stop-color="#333333"></stop><stop offset="1" stop-color="#000000"></stop></linearGradient><linearGradient x1="240.00006" y1="71.77311" x2="240.00006" y2="192.36978" gradientUnits="userSpaceOnUse" id="color-10"><stop offset="0" stop-color="#1a1a1a"></stop><stop offset="1" stop-color="#404040"></stop></linearGradient><radialGradient cx="210.06468" cy="180.6009" r="14.674" gradientUnits="userSpaceOnUse" id="color-11"><stop offset="0" stop-color="#1a0000"></stop><stop offset="1" stop-color="#800000"></stop></radialGradient></defs><g transform="translate(-173.77852,-39.31228)"><g data-paper-data="{&quot;isPaintingLayer&quot;:true}" fill-rule="nonzero" stroke-linejoin="miter" stroke-miterlimit="10" stroke-dasharray="" stroke-dashoffset="0" style="mix-blend-mode: normal"><path d="M179.35047,313.61253v-267.22501h123.18203v267.22501z" data-paper-data="{&quot;index&quot;:null}" fill-opacity="0.01" fill="#000000" stroke="none" stroke-width="0" stroke-linecap="butt"></path><path d="M206.75006,307.50002l15.14285,-131.8421l37.78325,-0.15789l13.57389,132z" data-paper-data="{&quot;index&quot;:null}" fill="url(#color-1)" stroke="#000000" stroke-width="0" stroke-linecap="butt"></path><g data-paper-data="{&quot;index&quot;:null}" stroke-linecap="butt"><path d="M244.30626,238.8975c0.00831,-1.39638 7.11263,-1.43698 11.24452,-2.6584c1.67066,-0.49386 3.02268,-0.44617 2.96404,-1.67747c-0.3029,-6.36064 -9.91521,-1.78653 -8.84571,-5.54729c1.26029,-4.43166 4.43754,-4.06718 7.65218,-7.36779c2.79744,-2.87226 6.0877,-3.31543 6.7619,-3.49557c0,0 2.27958,23.84368 3.15263,31.44494c0.10211,0.88906 -3.35241,2.04873 -6.61642,2.03197c-8.1164,-0.04168 -12.112,1.10833 -13.94298,-0.17838c-1.05286,-0.73989 2.53141,-2.03624 5.63947,-2.90748c2.4738,-0.69345 3.35531,-3.01473 5.16002,-3.66322c3.01523,-1.08348 2.88914,-2.39131 1.7027,-3.44949c-1.89714,-1.69203 -14.88068,-1.13544 -14.87237,-2.53182z" fill="url(#color-2)" stroke="#000000" stroke-width="0"></path><path d="M247.50746,262.40002c-1,-0.75 -0.25,-1.75 -0.25,-1.75l0.62391,-0.83087c0.26667,-0.33333 0.53333,-0.66667 0.8,-1c0,0 0.78086,-0.97609 1.75695,-0.19522c0.97609,0.78086 0.19522,1.75695 0.19522,1.75695c-0.26667,0.33333 -0.53333,0.66667 -0.8,1l-0.57609,0.76913c0,0 -0.75,1 -1.75,0.25z" fill="url(#color-3)" stroke="none" stroke-width="0.5"></path><path d="M238.55744,227.4c0,-1.25 1.25,-1.25 1.25,-1.25l0.90317,0.03732c1.12028,0.29182 2.21993,0.74118 3.19021,1.37262c0,0 1.04007,0.69338 0.34669,1.73344c-0.69338,1.04007 -1.73344,0.34669 -1.73344,0.34669c-0.71925,-0.49516 -1.56001,-0.82643 -2.40979,-1.02738l-0.29683,0.03732c0,0 -1.25,0 -1.25,-1.25z" fill="url(#color-4)" stroke="none" stroke-width="0.5"></path><path d="M234.70743,238.15001c-0.69036,0 -1.25,-0.55964 -1.25,-1.25c0,-0.69036 0.55964,-1.25 1.25,-1.25c0.69036,0 1.25,0.55964 1.25,1.25c0,0.69036 -0.55964,1.25 -1.25,1.25z" fill="url(#color-5)" stroke="none" stroke-width="0.5"></path><path d="M253.85743,220.45001c-0.69036,0 -1.25,-0.55964 -1.25,-1.25c0,-0.69036 0.55964,-1.25 1.25,-1.25c0.69036,0 1.25,0.55964 1.25,1.25c0,0.69036 -0.55964,1.25 -1.25,1.25z" fill="url(#color-6)" stroke="none" stroke-width="0.5"></path><path d="M244.70743,246.65001c-0.69036,0 -1.25,-0.55964 -1.25,-1.25c0,-0.69036 0.55964,-1.25 1.25,-1.25c0.69036,0 1.25,0.55964 1.25,1.25c0,0.69036 -0.55964,1.25 -1.25,1.25z" fill="url(#color-7)" stroke="none" stroke-width="0.5"></path></g><path d="M255.88678,79.91336c7.02752,-10.69437 54.63978,-38.81252 54.63978,-38.81252c0,0 -6.91532,54.86107 -13.94284,65.55544c-7.02753,10.69437 -21.83478,13.37727 -33.07291,5.99241c-11.23815,-7.38486 -14.65155,-22.04096 -7.62401,-32.73533z" data-paper-data="{&quot;index&quot;:null}" fill="url(#color-8)" stroke="#000000" stroke-width="0" stroke-linecap="butt"></path><path d="M225.94342,81.39246c6.36061,11.10397 2.05763,25.524 -9.61096,32.20802c-11.66859,6.68401 -26.28414,3.10094 -32.64474,-8.00303c-6.36061,-11.10397 -9.9092,-66.28517 -9.9092,-66.28517c0,0 45.80428,30.97622 52.16489,42.0802z" data-paper-data="{&quot;index&quot;:null}" fill="url(#color-9)" stroke="#000000" stroke-width="0" stroke-linecap="butt"></path><path d="M175.76304,132.07144c0,-33.30185 28.7599,-60.29833 64.23702,-60.29833c35.47713,0 64.23702,26.99648 64.23702,60.29833c0,33.30185 -28.75989,60.29834 -64.23702,60.29834c-35.47712,0 -64.23702,-26.99649 -64.23702,-60.29834z" data-paper-data="{&quot;index&quot;:null}" fill="url(#color-10)" stroke="#000000" stroke-width="0" stroke-linecap="butt"></path><path d="M189.39018,132.34707c0,-12.96801 10.51265,-23.48065 23.48066,-23.48065c12.96801,0 23.48065,10.51264 23.48065,23.48065c0,12.96801 -10.51264,23.48066 -23.48065,23.48066c-12.96801,0 -23.48066,-10.51265 -23.48066,-23.48066z" data-paper-data="{&quot;index&quot;:null}" fill="#808080" stroke="#000000" stroke-width="0" stroke-linecap="butt"></path><path d="M201.14112,95.36856c0,0 6.85209,-4.9779 11.97203,-6.02824c5.11993,-1.05033 12.30949,1.04702 12.30949,1.04702c0,0 -8.03322,-0.28701 -11.98718,0.52413c-4.13203,0.84766 -12.29434,4.45707 -12.29434,4.45707z" data-paper-data="{&quot;index&quot;:null}" fill="#000000" stroke="none" stroke-width="0" stroke-linecap="butt"></path><path d="M193.58896,158.98788c0,-0.41421 0.33579,-0.75 0.75,-0.75c0.41421,0 0.75,0.33579 0.75,0.75c0,0.41421 -0.33579,0.75 -0.75,0.75c-0.41421,0 -0.75,-0.33579 -0.75,-0.75z" data-paper-data="{&quot;index&quot;:null}" fill="#000000" stroke="none" stroke-width="0.5" stroke-linecap="butt"></path><path d="M204.38897,163.38788c0,-0.41421 0.33579,-0.75 0.75,-0.75c0.41421,0 0.75,0.33579 0.75,0.75c0,0.41421 -0.33579,0.75 -0.75,0.75c-0.41421,0 -0.75,-0.33579 -0.75,-0.75z" data-paper-data="{&quot;index&quot;:null}" fill="#000000" stroke="none" stroke-width="0.5" stroke-linecap="butt"></path><path d="M198.18897,168.18788c0,-0.41421 0.33579,-0.75 0.75,-0.75c0.41421,0 0.75,0.33579 0.75,0.75c0,0.41421 -0.33579,0.75 -0.75,0.75c-0.41421,0 -0.75,-0.33579 -0.75,-0.75z" data-paper-data="{&quot;index&quot;:null}" fill="#000000" stroke="none" stroke-width="0.5" stroke-linecap="butt"></path><path d="M285.66114,159.73788c-0.41422,0 -0.75,-0.33578 -0.75,-0.75c0,-0.41422 0.33578,-0.75 0.75,-0.75c0.41422,0 0.75,0.33578 0.75,0.75c0,0.41422 -0.33578,0.75 -0.75,0.75z" data-paper-data="{&quot;index&quot;:null}" fill="#000000" stroke="none" stroke-width="0.5" stroke-linecap="butt"></path><path d="M274.86118,164.13788c-0.41422,0 -0.75,-0.33578 -0.75,-0.75c0,-0.41422 0.33578,-0.75 0.75,-0.75c0.41422,0 0.75,0.33578 0.75,0.75c0,0.41422 -0.33578,0.75 -0.75,0.75z" data-paper-data="{&quot;index&quot;:null}" fill="#000000" stroke="none" stroke-width="0.5" stroke-linecap="butt"></path><path d="M281.06111,168.93788c-0.41422,0 -0.75,-0.33578 -0.75,-0.75c0,-0.41422 0.33578,-0.75 0.75,-0.75c0.41422,0 0.75,0.33578 0.75,0.75c0,0.41422 -0.33578,0.75 -0.75,0.75z" data-paper-data="{&quot;index&quot;:null}" fill="#000000" stroke="none" stroke-width="0.5" stroke-linecap="butt"></path><path d="M267.12926,155.82773c-12.96801,0 -23.48065,-10.51265 -23.48065,-23.48066c0,-12.96801 10.51264,-23.48065 23.48065,-23.48065c12.96801,0 23.48066,10.51264 23.48066,23.48065c0,12.96801 -10.51265,23.48066 -23.48066,23.48066z" data-paper-data="{&quot;index&quot;:null}" fill="#808080" stroke="#000000" stroke-width="0" stroke-linecap="butt"></path><g data-paper-data="{&quot;index&quot;:null}" stroke="none" stroke-width="0" stroke-linecap="butt"><path d="M198.5056,132.57144c0,-10.92299 6.50433,-19.77784 14.52783,-19.77784c8.0235,0 14.52784,8.85484 14.52784,19.77785c0,10.92299 -6.50434,19.77785 -14.52784,19.77785c-8.0235,0 -14.52783,-8.85484 -14.52783,-19.77785z" fill="#1a1a1a"></path><path d="M200.13174,132.50308c0,-9.70036 5.77629,-17.56405 12.9017,-17.56405c7.12541,0 12.9017,7.86369 12.9017,17.56407c0,9.70036 -5.77629,17.56407 -12.9017,17.56407c-7.12541,0 -12.9017,-7.86372 -12.9017,-17.56407z" fill="#808080"></path></g><g data-paper-data="{&quot;index&quot;:null}" stroke="none" stroke-width="0" stroke-linecap="butt"><path d="M281.49454,132.57145c0,10.92301 -6.50433,19.77785 -14.52783,19.77785c-8.0235,0 -14.52784,-8.85486 -14.52784,-19.77785c0,-10.92301 6.50434,-19.77785 14.52784,-19.77785c8.0235,0 14.52783,8.85485 14.52783,19.77784z" fill="#1a1a1a"></path><path d="M279.86841,132.5031c0,9.70035 -5.77628,17.56407 -12.90169,17.56407c-7.12541,0 -12.90169,-7.86371 -12.90169,-17.56407c0,-9.70038 5.77629,-17.56407 12.90169,-17.56407c7.12541,0 12.90169,7.86369 12.90169,17.56405z" fill="#808080"></path></g><path d="M206.57143,173.04203c4.83545,1.70983 -1.90416,4.06604 4.36238,8.20095c3.15184,2.05589 5.37676,0.67745 7.24778,1.03631c4.70058,0.90156 6.10508,1.08259 6.55706,8.37845c-11.22771,-2.56816 -21.29973,-7.90614 -29.34801,-15.19911c0,0 3.9312,-4.98009 11.18078,-2.4166z" data-paper-data="{&quot;index&quot;:null}" fill="url(#color-11)" stroke="#000000" stroke-width="0" stroke-linecap="butt"></path><g stroke="#000000" stroke-linecap="round"><path d="M197.51376,154.86695c0,0 6.62421,12.44978 42.625,12.71367c32.89064,0.24109 41,-11.97204 41,-11.97204c0,0 -16.11082,27.49276 -40.275,27.21705c-24.16418,-0.27571 -43.35,-27.95868 -43.35,-27.95868z" data-paper-data="{&quot;index&quot;:null}" fill="#000000" stroke-width="2"></path><path d="M202.09399,159.24512c0,0 4.62054,3.2467 12.72979,5.58175c8.10925,2.33506 15.10694,3.24334 24.98449,3.13619c9.87754,-0.10714 20.35001,-1.28818 27.20831,-3.70235c6.8583,-2.41417 10.64884,-5.49992 10.64884,-5.49992c0,0 -14.68491,13.06373 -37.42857,13.198c-20.88726,0.12332 -38.14285,-12.71367 -38.14285,-12.71367z" fill="#808080" stroke-width="0"></path></g><path d="M278.85902,95.36855c0,0 -8.16231,-3.60941 -12.29434,-4.45707c-3.95396,-0.81114 -11.98718,-0.52414 -11.98718,-0.52414c0,0 7.18957,-2.09735 12.30949,-1.04702c5.11993,1.05033 11.97203,6.02823 11.97203,6.02823z" data-paper-data="{&quot;index&quot;:null}" fill="#000000" stroke="none" stroke-width="0" stroke-linecap="butt"></path></g></g></svg>