<svg version="1.1" xmlns="http://www.w3.org/2000/svg" xmlns:xlink="http://www.w3.org/1999/xlink" width="130.47404" height="273.69582" viewBox="0,0,130.47404,273.69582"><g transform="translate(-174.76312,-39.91671)"><g data-paper-data="{&quot;isPaintingLayer&quot;:true}" fill-rule="nonzero" stroke-linejoin="miter" stroke-miterlimit="10" stroke-dasharray="" stroke-dashoffset="0" style="mix-blend-mode: normal"><path d="M179.2839,313.61253v-267.22501h123.18203v267.22501z" fill-opacity="0.01" fill="#000000" stroke="none" stroke-width="0" stroke-linecap="butt"></path><path d="M206.75014,307.50002l15.14285,-131.8421l37.78325,-0.15789l13.57389,132z" fill="#808080" stroke="#000000" stroke-width="2" stroke-linecap="butt"></path><path d="M249.42548,94.54665c3.78101,-12.22536 41.71126,-52.46036 41.71126,-52.46036c0,0 8.59283,54.62345 4.81182,66.84882c-3.78101,12.22536 -17.26067,18.91501 -30.10766,14.94175c-12.84699,-3.97326 -20.19643,-17.10484 -16.41542,-29.3302z" data-paper-data="{&quot;index&quot;:null}" fill="#808080" stroke="#000000" stroke-width="2" stroke-linecap="butt"></path><path d="M230.57473,94.54666c3.78101,12.22536 -3.56843,25.35695 -16.41542,29.33021c-12.84699,3.97325 -26.32666,-2.71639 -30.10766,-14.94175c-3.78101,-12.22536 4.81182,-66.84881 4.81182,-66.84881c0,0 37.93025,40.23499 41.71126,52.46036z" data-paper-data="{&quot;index&quot;:null}" fill="#808080" stroke="#000000" stroke-width="2" stroke-linecap="butt"></path><path d="M219.70036,204.11266l3.12142,-26.32765l35.83075,-0.14203l2.76735,26.1059c0,0 -7.51543,4.19603 -21.55904,4.50964c-12.48458,0.27879 -20.16049,-4.14586 -20.16049,-4.14586z" fill="#666666" stroke="#000000" stroke-width="0" stroke-linecap="butt"></path><path d="M175.76312,135.4192c0,-33.30185 28.7599,-60.29833 64.23702,-60.29833c35.47713,0 64.23702,26.99648 64.23702,60.29833c0,33.30185 -28.75989,60.29834 -64.23702,60.29834c-35.47712,0 -64.23702,-26.99649 -64.23702,-60.29834z" fill="#808080" stroke="#000000" stroke-width="2" stroke-linecap="butt"></path><path d="M189.39027,135.69484c0,-12.96801 10.51265,-23.48065 23.48066,-23.48065c12.96801,0 23.48065,10.51264 23.48065,23.48065c0,12.96801 -10.51264,23.48066 -23.48065,23.48066c-12.96801,0 -23.48066,-10.51265 -23.48066,-23.48066z" fill="#ffffff" stroke="#000000" stroke-width="2" stroke-linecap="butt"></path><path d="M196.25569,135.4192c0,-9.12807 7.39976,-16.52784 16.52783,-16.52784c9.12807,0 16.52784,7.39977 16.52784,16.52785c0,9.12807 -7.39977,16.52785 -16.52784,16.52785c-9.12807,0 -16.52783,-7.39977 -16.52783,-16.52785z" fill="#1a1a1a" stroke="none" stroke-width="0" stroke-linecap="butt"></path><path d="M203.85563,135.4192c0,-4.93071 3.99713,-8.92784 8.92784,-8.92784c4.93071,0 8.92784,3.99713 8.92784,8.92785c0,4.93071 -3.99713,8.92785 -8.92784,8.92785c-4.93071,0 -8.92784,-3.99714 -8.92784,-8.92785z" fill="#ffffff" stroke="none" stroke-width="0" stroke-linecap="butt"></path><path d="M267.12931,159.1755c-12.96801,0 -23.48065,-10.51265 -23.48065,-23.48066c0,-12.96801 10.51264,-23.48065 23.48065,-23.48065c12.96801,0 23.48066,10.51264 23.48066,23.48065c0,12.96801 -10.51265,23.48066 -23.48066,23.48066z" data-paper-data="{&quot;index&quot;:null}" fill="#ffffff" stroke="#000000" stroke-width="2" stroke-linecap="butt"></path><path d="M283.74451,135.4192c0,9.12808 -7.39976,16.52785 -16.52783,16.52785c-9.12807,0 -16.52784,-7.39978 -16.52784,-16.52785c0,-9.12808 7.39977,-16.52785 16.52784,-16.52785c9.12807,0 16.52783,7.39977 16.52783,16.52784z" data-paper-data="{&quot;index&quot;:null}" fill="#1a1a1a" stroke="none" stroke-width="0" stroke-linecap="butt"></path><path d="M276.1445,135.4192c0,4.93071 -3.99712,8.92785 -8.92783,8.92785c-4.93071,0 -8.92784,-3.99714 -8.92784,-8.92785c0,-4.93071 3.99714,-8.92785 8.92784,-8.92785c4.93071,0 8.92783,3.99713 8.92783,8.92784z" data-paper-data="{&quot;index&quot;:null}" fill="#ffffff" stroke="none" stroke-width="0" stroke-linecap="butt"></path><path d="M176.56318,135.3192c0,-0.72799 5.20666,55.91939 63.36046,56.93429c55.56352,0.9697 63.51358,-57.95314 63.51358,-56.93429c0,32.80479 -28.40173,59.39833 -63.43702,59.39833c-35.03529,0 -63.43702,-26.59354 -63.43702,-59.39833z" fill="#666666" stroke="#000000" stroke-width="0" stroke-linecap="butt"></path><path d="M199.69464,103.21972c0,0 6.70895,-5.16922 11.79721,-6.36355c5.08827,-1.19433 12.33413,0.69937 12.33413,0.69937c0,0 -8.03812,-0.06028 -11.96762,0.86207c-4.10648,0.96389 -12.16372,4.80211 -12.16372,4.80211z" fill="#000000" stroke="none" stroke-width="0" stroke-linecap="butt"></path><path d="M267.29571,98.41762c-3.9295,-0.92235 -11.96762,-0.86207 -11.96762,-0.86207c0,0 7.24586,-1.8937 12.33413,-0.69937c5.08826,1.19433 11.79721,6.36355 11.79721,6.36355c0,0 -8.05724,-3.83822 -12.16372,-4.80211z" data-paper-data="{&quot;index&quot;:null}" fill="#000000" stroke="none" stroke-width="0" stroke-linecap="butt"></path><path d="M193.58905,162.33564c0,-0.41421 0.33579,-0.75 0.75,-0.75c0.41421,0 0.75,0.33579 0.75,0.75c0,0.41421 -0.33579,0.75 -0.75,0.75c-0.41421,0 -0.75,-0.33579 -0.75,-0.75z" fill="#000000" stroke="none" stroke-width="0.5" stroke-linecap="butt"></path><path d="M204.38902,166.73564c0,-0.41421 0.33579,-0.75 0.75,-0.75c0.41421,0 0.75,0.33579 0.75,0.75c0,0.41421 -0.33579,0.75 -0.75,0.75c-0.41421,0 -0.75,-0.33579 -0.75,-0.75z" fill="#000000" stroke="none" stroke-width="0.5" stroke-linecap="butt"></path><path d="M198.189,171.53564c0,-0.41421 0.33579,-0.75 0.75,-0.75c0.41421,0 0.75,0.33579 0.75,0.75c0,0.41421 -0.33579,0.75 -0.75,0.75c-0.41421,0 -0.75,-0.33579 -0.75,-0.75z" fill="#000000" stroke="none" stroke-width="0.5" stroke-linecap="butt"></path><path d="M285.66119,163.08564c-0.41422,0 -0.75,-0.33578 -0.75,-0.75c0,-0.41422 0.33578,-0.75 0.75,-0.75c0.41422,0 0.75,0.33578 0.75,0.75c0,0.41422 -0.33578,0.75 -0.75,0.75z" data-paper-data="{&quot;index&quot;:null}" fill="#000000" stroke="none" stroke-width="0.5" stroke-linecap="butt"></path><path d="M274.86118,167.48564c-0.41422,0 -0.75,-0.33578 -0.75,-0.75c0,-0.41422 0.33578,-0.75 0.75,-0.75c0.41422,0 0.75,0.33578 0.75,0.75c0,0.41422 -0.33578,0.75 -0.75,0.75z" data-paper-data="{&quot;index&quot;:null}" fill="#000000" stroke="none" stroke-width="0.5" stroke-linecap="butt"></path><path d="M281.06111,172.28564c-0.41422,0 -0.75,-0.33578 -0.75,-0.75c0,-0.41422 0.33578,-0.75 0.75,-0.75c0.41422,0 0.75,0.33578 0.75,0.75c0,0.41422 -0.33578,0.75 -0.75,0.75z" data-paper-data="{&quot;index&quot;:null}" fill="#000000" stroke="none" stroke-width="0.5" stroke-linecap="butt"></path><path d="M240.18048,192.53261c-8.14409,0.03385 -15.94952,-22.42578 -15.94952,-22.42578c0,0 5.78368,2.61526 15.1809,2.57621c9.39722,-0.03905 16.78583,-2.77614 16.78583,-2.77614c0,0 -8.13321,22.59295 -16.01722,22.62571z" fill="#000000" stroke="#000000" stroke-width="2" stroke-linecap="round"></path><path d="M189.39027,135.69484c0,-12.96801 10.51265,-23.48065 23.48066,-23.48065c12.96801,0 23.48065,10.51264 23.48065,23.48065c0,0 -8.62047,-15.61155 -24.26853,-15.13993c-15.64806,0.47162 -22.69278,15.73693 -22.69278,15.13993z" data-paper-data="{&quot;index&quot;:null}" fill="#000000" stroke="#000000" stroke-width="2" stroke-linecap="butt"></path><path d="M267.91718,120.55491c-15.64806,-0.47162 -24.26853,15.13992 -24.26853,15.13992c0,-12.96801 10.51264,-23.48065 23.48065,-23.48065c12.96801,0 23.48066,10.51264 23.48066,23.48065c0,0.597 -7.04472,-14.6683 -22.69278,-15.13992z" data-paper-data="{&quot;index&quot;:null}" fill="#000000" stroke="#000000" stroke-width="2" stroke-linecap="butt"></path></g></g></svg>