<svg version="1.1" xmlns="http://www.w3.org/2000/svg" xmlns:xlink="http://www.w3.org/1999/xlink" width="143.68023" height="375.39041" viewBox="0,0,143.68023,375.39041"><defs><linearGradient x1="249.03893" y1="255.34783" x2="249.03893" y2="280.94759" gradientUnits="userSpaceOnUse" id="color-1"><stop offset="0" stop-color="#1a0c12"></stop><stop offset="1" stop-color="#4d2637"></stop></linearGradient><linearGradient x1="245.93892" y1="248.79783" x2="245.93892" y2="260.99765" gradientUnits="userSpaceOnUse" id="color-2"><stop offset="0" stop-color="#1a0c12"></stop><stop offset="1" stop-color="#4d2637"></stop></linearGradient><linearGradient x1="234.93892" y1="247.19784" x2="234.93892" y2="259.39761" gradientUnits="userSpaceOnUse" id="color-3"><stop offset="0" stop-color="#1a0c12"></stop><stop offset="1" stop-color="#4d2637"></stop></linearGradient><linearGradient x1="231.53893" y1="245.79783" x2="231.53893" y2="257.99765" gradientUnits="userSpaceOnUse" id="color-4"><stop offset="0" stop-color="#1a0c12"></stop><stop offset="1" stop-color="#4d2637"></stop></linearGradient><linearGradient x1="234.23894" y1="242.39784" x2="234.23894" y2="253.79783" gradientUnits="userSpaceOnUse" id="color-5"><stop offset="0" stop-color="#1a0c12"></stop><stop offset="1" stop-color="#4d2637"></stop></linearGradient><linearGradient x1="252.63893" y1="227.99785" x2="252.63893" y2="256.59766" gradientUnits="userSpaceOnUse" id="color-6"><stop offset="0" stop-color="#1a0c12"></stop><stop offset="1" stop-color="#4d2637"></stop></linearGradient><linearGradient x1="239.70799" y1="175.50014" x2="239.70799" y2="258.19321" gradientUnits="userSpaceOnUse" id="color-7"><stop offset="0" stop-color="#000000"></stop><stop offset="1" stop-color="#662c00"></stop></linearGradient><linearGradient x1="239.75004" y1="-60.57788" x2="239.75004" y2="91.57838" gradientUnits="userSpaceOnUse" id="color-8"><stop offset="0" stop-color="#4d2a0f"></stop><stop offset="1" stop-color="#1a0b00"></stop></linearGradient><linearGradient x1="241.85482" y1="82.67682" x2="241.85482" y2="197.01578" gradientUnits="userSpaceOnUse" id="color-9"><stop offset="0" stop-color="#1a1a1a"></stop><stop offset="1" stop-color="#808080"></stop></linearGradient><linearGradient x1="239.99884" y1="176.66343" x2="239.99884" y2="191.83007" gradientUnits="userSpaceOnUse" id="color-10"><stop offset="0" stop-color="#1a1a1a"></stop><stop offset="1" stop-color="#808080"></stop></linearGradient><linearGradient x1="209.02607" y1="145.75604" x2="209.02607" y2="172.25611" gradientUnits="userSpaceOnUse" id="color-11"><stop offset="0" stop-color="#1a0000"></stop><stop offset="1" stop-color="#800000"></stop></linearGradient><linearGradient x1="272.82021" y1="169.84637" x2="272.82021" y2="176.59108" gradientUnits="userSpaceOnUse" id="color-12"><stop offset="0" stop-color="#4d4d4d"></stop><stop offset="1" stop-color="#808080"></stop></linearGradient><linearGradient x1="270.09376" y1="169.19697" x2="270.09376" y2="177.25772" gradientUnits="userSpaceOnUse" id="color-13"><stop offset="0" stop-color="#4d4d4d"></stop><stop offset="1" stop-color="#808080"></stop></linearGradient><linearGradient x1="266.09052" y1="168.71" x2="266.09052" y2="177.75772" gradientUnits="userSpaceOnUse" id="color-14"><stop offset="0" stop-color="#4d4d4d"></stop><stop offset="1" stop-color="#808080"></stop></linearGradient><linearGradient x1="260.58516" y1="167.89831" x2="260.58516" y2="178.59108" gradientUnits="userSpaceOnUse" id="color-15"><stop offset="0" stop-color="#4d4d4d"></stop><stop offset="1" stop-color="#808080"></stop></linearGradient><linearGradient x1="247.07875" y1="167.09092" x2="247.07875" y2="179.75772" gradientUnits="userSpaceOnUse" id="color-16"><stop offset="0" stop-color="#4d4d4d"></stop><stop offset="1" stop-color="#808080"></stop></linearGradient><linearGradient x1="254.192" y1="167.24904" x2="254.192" y2="179.25772" gradientUnits="userSpaceOnUse" id="color-17"><stop offset="0" stop-color="#4d4d4d"></stop><stop offset="1" stop-color="#808080"></stop></linearGradient><linearGradient x1="213.708" y1="169.67965" x2="213.708" y2="176.42442" gradientUnits="userSpaceOnUse" id="color-18"><stop offset="0" stop-color="#4d4d4d"></stop><stop offset="1" stop-color="#808080"></stop></linearGradient><linearGradient x1="216.43449" y1="169.03038" x2="216.43449" y2="177.09108" gradientUnits="userSpaceOnUse" id="color-19"><stop offset="0" stop-color="#4d4d4d"></stop><stop offset="1" stop-color="#808080"></stop></linearGradient><linearGradient x1="220.4377" y1="168.54328" x2="220.4377" y2="177.59108" gradientUnits="userSpaceOnUse" id="color-20"><stop offset="0" stop-color="#4d4d4d"></stop><stop offset="1" stop-color="#808080"></stop></linearGradient><linearGradient x1="225.94306" y1="167.73159" x2="225.94306" y2="178.42442" gradientUnits="userSpaceOnUse" id="color-21"><stop offset="0" stop-color="#4d4d4d"></stop><stop offset="1" stop-color="#808080"></stop></linearGradient><linearGradient x1="239.44949" y1="166.92436" x2="239.44949" y2="179.59108" gradientUnits="userSpaceOnUse" id="color-22"><stop offset="0" stop-color="#4d4d4d"></stop><stop offset="1" stop-color="#808080"></stop></linearGradient><linearGradient x1="232.33623" y1="167.08223" x2="232.33623" y2="179.09108" gradientUnits="userSpaceOnUse" id="color-23"><stop offset="0" stop-color="#4d4d4d"></stop><stop offset="1" stop-color="#808080"></stop></linearGradient><linearGradient x1="269.99105" y1="185.12063" x2="269.99105" y2="179.06609" gradientUnits="userSpaceOnUse" id="color-24"><stop offset="0" stop-color="#4d4d4d"></stop><stop offset="1" stop-color="#808080"></stop></linearGradient><linearGradient x1="267.54351" y1="187.16227" x2="267.54351" y2="179.92638" gradientUnits="userSpaceOnUse" id="color-25"><stop offset="0" stop-color="#4d4d4d"></stop><stop offset="1" stop-color="#808080"></stop></linearGradient><linearGradient x1="263.94987" y1="188.60935" x2="263.94987" y2="180.48739" gradientUnits="userSpaceOnUse" id="color-26"><stop offset="0" stop-color="#4d4d4d"></stop><stop offset="1" stop-color="#808080"></stop></linearGradient><linearGradient x1="259.00778" y1="190.34789" x2="259.00778" y2="180.74921" gradientUnits="userSpaceOnUse" id="color-27"><stop offset="0" stop-color="#4d4d4d"></stop><stop offset="1" stop-color="#808080"></stop></linearGradient><linearGradient x1="246.88323" y1="193.09242" x2="246.88323" y2="181.72172" gradientUnits="userSpaceOnUse" id="color-28"><stop offset="0" stop-color="#4d4d4d"></stop><stop offset="1" stop-color="#808080"></stop></linearGradient><linearGradient x1="253.2687" y1="192.05293" x2="253.2687" y2="181.27291" gradientUnits="userSpaceOnUse" id="color-29"><stop offset="0" stop-color="#4d4d4d"></stop><stop offset="1" stop-color="#808080"></stop></linearGradient><linearGradient x1="216.70388" y1="185.12063" x2="216.70388" y2="179.06609" gradientUnits="userSpaceOnUse" id="color-30"><stop offset="0" stop-color="#4d4d4d"></stop><stop offset="1" stop-color="#808080"></stop></linearGradient><linearGradient x1="219.15142" y1="187.16227" x2="219.15142" y2="179.92638" gradientUnits="userSpaceOnUse" id="color-31"><stop offset="0" stop-color="#4d4d4d"></stop><stop offset="1" stop-color="#808080"></stop></linearGradient><linearGradient x1="222.74506" y1="188.60935" x2="222.74506" y2="180.48739" gradientUnits="userSpaceOnUse" id="color-32"><stop offset="0" stop-color="#4d4d4d"></stop><stop offset="1" stop-color="#808080"></stop></linearGradient><linearGradient x1="227.68715" y1="190.34789" x2="227.68715" y2="180.74921" gradientUnits="userSpaceOnUse" id="color-33"><stop offset="0" stop-color="#4d4d4d"></stop><stop offset="1" stop-color="#808080"></stop></linearGradient><linearGradient x1="239.8117" y1="193.09242" x2="239.8117" y2="181.72172" gradientUnits="userSpaceOnUse" id="color-34"><stop offset="0" stop-color="#4d4d4d"></stop><stop offset="1" stop-color="#808080"></stop></linearGradient><linearGradient x1="233.42621" y1="192.05293" x2="233.42621" y2="181.27291" gradientUnits="userSpaceOnUse" id="color-35"><stop offset="0" stop-color="#4d4d4d"></stop><stop offset="1" stop-color="#808080"></stop></linearGradient><linearGradient x1="273.83329" y1="79.54786" x2="273.83329" y2="200.14461" gradientUnits="userSpaceOnUse" id="color-36"><stop offset="0" stop-color="#1a0b00"></stop><stop offset="1" stop-color="#803700"></stop></linearGradient></defs><g transform="translate(-179.28381,60.57786)"><g data-paper-data="{&quot;isPaintingLayer&quot;:true}" fill-rule="nonzero" stroke-linejoin="miter" stroke-miterlimit="10" stroke-dasharray="" stroke-dashoffset="0" style="mix-blend-mode: normal"><g stroke-width="0" stroke-linecap="butt"><path d="M179.28381,314.81255v-267.22501h123.18203c0,0 0,122.70263 0,171.58786c0,36.55566 0,95.63716 0,95.63716z" fill-opacity="0.01" fill="#000000" stroke="none"></path><path d="M226.88697,275.10006l-3.31603,-27.70409l-8.75109,12.64895l8.5363,-79.06638l34.73006,-0.14513l8.17315,78.15567l-10.60496,-19.6261l-2.34118,44.0871l-14.47506,-17.48613z" fill="#000000" stroke="#000000"></path><path d="M246.23894,280.94759v-25.6h5.6v25.6z" fill="url(#color-1)" stroke="none"></path><path d="M245.93892,248.79783c8.06336,0 14.6,2.73106 14.6,6.1c0,3.36894 -6.53664,6.1 -14.6,6.1c-8.06336,0 -14.6,-2.73106 -14.6,-6.1c0,-3.36894 6.53664,-6.1 14.6,-6.1z" fill="url(#color-2)" stroke="none"></path><path d="M234.93892,247.19781c6.51696,0 11.8,-1.06894 11.8,2.3c0,3.36894 -5.48304,12.3 -12,12.3c-10.71696,0 -11.6,-5.13106 -11.6,-8.5c0,-3.36894 5.28304,-6.1 11.8,-6.1z" fill="url(#color-3)" stroke="none"></path><path d="M231.53893,245.79783c8.06336,0 14.6,2.73107 14.6,6.1c0,3.36893 -6.53664,6.1 -14.6,6.1c-8.06336,0 -14.6,-2.73107 -14.6,-6.1c0,-3.36893 6.53664,-6.1 14.6,-6.1z" fill="url(#color-4)" stroke="none"></path><path d="M234.23894,242.39784c6.12186,0 11.08461,2.55198 11.08461,5.7c0,3.14803 -4.96275,5.7 -11.08461,5.7c-6.12187,0 -11.08462,-2.55198 -11.08462,-5.7c0,-3.14802 4.96276,-5.7 11.08462,-5.7z" fill="url(#color-5)" stroke="none"></path><path d="M252.63893,227.99782c6.68265,0 12.1,6.40233 12.1,14.3c0,7.89767 -5.41735,14.3 -12.1,14.3c-6.68265,0 -12.1,-6.40233 -12.1,-14.3c0,-7.89767 5.41735,-14.3 12.1,-14.3z" fill="url(#color-6)" stroke="none"></path><path d="M224.75012,249.38903l-11.65573,2.87441l8.79859,-76.6054l37.78325,-0.15789l6.64538,64.6234l-7.18261,10.04327l-8.1885,-1.44817l-16.43832,9.47462z" fill="url(#color-7)" stroke="#000000"></path></g><path d="M263.98218,113.34321l38.87773,-51.98641l20.10413,-10.73174l-4.29894,18.4061l-49.49748,49.49748z" data-paper-data="{&quot;index&quot;:null}" fill="#4d3626" stroke="#000000" stroke-width="0" stroke-linecap="butt"></path><path d="M234.75004,91.57838v-152.15623h10v152.15623z" fill="url(#color-8)" stroke="#000000" stroke-width="0" stroke-linecap="butt"></path><path d="M272.16668,190.92527c0,5.24211 -14.40151,9.49166 -32.16667,9.49166c-17.76516,0 -32.16666,-4.24956 -32.16666,-9.49166c0,-5.24211 14.4015,-9.49167 32.16666,-9.49167c17.76516,0 32.16667,4.24956 32.16667,9.49167z" fill="#1a0e05" stroke="none" stroke-width="0" stroke-linecap="butt"></path><path d="M180.95112,139.84628c0,-31.57378 27.26752,-57.16938 60.90369,-57.16938c33.63617,0 57.65369,20.09561 57.65369,51.66938c0,31.57378 -19.35085,37.66938 -57.65369,38.00271c-49.3021,0.42905 -60.90369,-0.92894 -60.90369,-32.50271z" fill="url(#color-9)" stroke="#000000" stroke-width="0" stroke-linecap="butt"></path><path d="M273.24884,184.24677c0,4.18816 -14.88653,14.41667 -33.25,14.41667c-18.36347,0 -33.25,-10.22851 -33.25,-14.41667c0,-4.18816 15.5532,2.58333 33.91667,2.58333c18.36347,0 32.58333,-6.77149 32.58333,-2.58333z" fill="url(#color-10)" stroke="none" stroke-width="0" stroke-linecap="butt"></path><path d="M228.5332,154.72747c0.87632,0.6654 0.13458,4.188 0.22266,8.02332c0.0974,4.24113 0.09771,8.68997 -0.35123,9.51954c-0.45362,0.83822 -1.59186,-1.39609 -2.62788,-4.10999c-0.68948,-1.80613 -1.33368,-4.30218 -1.70069,-4.5043c-2.29683,-1.26492 -2.3176,4.41187 -3.9,4.8c-0.5066,0.12426 -0.73066,-3.67461 -1.4,-3.5c-0.59117,0.15422 -2.7965,4.86873 -3.2,4.7c-0.53277,-0.22279 -0.1935,-6.27687 -2.3,-7c-1.70148,-0.58409 -3.30562,4.8026 -4.4,4.7c-0.77141,-0.07232 -0.3059,-4.79177 -2,-5.3c-1.74586,-0.52375 -2.45579,3.85883 -3,3.8c-0.67993,-0.07351 -0.49204,-3.94826 -0.7,-4.2c-0.85852,-1.03926 -1.5787,0.53636 -1.84286,0.3c-0.24603,-0.22013 -0.26545,-3.58466 -1.95714,-3.7c-1.09397,-0.07459 -1.05868,3.97261 -1.94285,3.14285c-0.26243,-0.24628 -1.08989,-5.18287 -2.12857,-4.29999c-0.11144,0.09473 -1.60811,4.50399 -2.0802,4.13375c-1.92039,-1.50611 -2.79775,-14.02687 -0.27695,-19.13375c1.74227,-3.52964 23.87077,3.73327 35.58571,12.62857z" data-paper-data="{&quot;index&quot;:null}" fill="url(#color-11)" stroke="#000000" stroke-width="0" stroke-linecap="round"></path><path d="M190.80543,140.27574c0,-12.968 10.51265,-23.48065 23.48065,-23.48065c12.968,0 23.48065,10.51265 23.48065,23.48065c0,12.968 -10.51265,23.48065 -23.48065,23.48065c-12.968,0 -23.48065,-10.51265 -23.48065,-23.48065z" data-paper-data="{&quot;index&quot;:null}" fill="#000000" stroke="#000000" stroke-width="0.5" stroke-linecap="butt"></path><g stroke="none" stroke-width="0" stroke-linecap="butt"><g><path d="M270.69037,176.59108c0,0 -0.58522,-6.83333 2.21862,-6.83333c2.80383,0 2.04112,6.83333 2.04112,6.83333z" fill="url(#color-12)"></path><path d="M267.54826,177.25772c0,0 -0.69941,-8.16667 2.65152,-8.16667c3.35092,0 2.43939,8.16667 2.43939,8.16667z" fill="url(#color-13)"></path><path d="M263.23335,177.75772c0,0 -0.78505,-9.16667 2.97619,-9.16667c3.76124,0 2.73809,9.16667 2.73809,9.16667z" fill="url(#color-14)"></path><path d="M257.20855,178.59108c0,0 -0.92778,-10.83333 3.51732,-10.83333c4.4451,0 3.23593,10.83333 3.23593,10.83333z" fill="url(#color-15)"></path><path d="M243.07875,179.75772c0,0 -1.09907,-12.83333 4.16667,-12.83333c5.26574,0 3.83333,12.83333 3.83333,12.83333z" fill="url(#color-16)"></path><path d="M250.3998,179.25772c0,0 -1.04197,-12.16667 3.95022,-12.16667c4.99219,0 3.6342,12.16667 3.6342,12.16667z" fill="url(#color-17)"></path></g><g data-paper-data="{&quot;index&quot;:null}"><path d="M211.5781,176.42442c0,0 -0.76271,-6.83333 2.04112,-6.83333c2.80384,0 2.21862,6.83333 2.21862,6.83333z" fill="url(#color-18)"></path><path d="M213.88904,177.09108c0,0 -0.91153,-8.16667 2.43939,-8.16667c3.35093,0 2.65152,8.16667 2.65152,8.16667z" fill="url(#color-19)"></path><path d="M217.58059,177.59108c0,0 -1.02315,-9.16667 2.73809,-9.16667c3.76124,0 2.97619,9.16667 2.97619,9.16667z" fill="url(#color-20)"></path><path d="M222.56643,178.42442c0,0 -1.20917,-10.83333 3.23593,-10.83333c4.4451,0 3.51732,10.83333 3.51732,10.83333z" fill="url(#color-21)"></path><path d="M235.44949,179.59108c0,0 -1.43241,-12.83333 3.83333,-12.83333c5.26574,0 4.16667,12.83333 4.16667,12.83333z" fill="url(#color-22)"></path><path d="M228.54403,179.09108c0,0 -1.35799,-12.16667 3.6342,-12.16667c4.99219,0 3.95022,12.16667 3.95022,12.16667z" fill="url(#color-23)"></path></g></g><g stroke="none" stroke-width="0" stroke-linecap="butt"><g><path d="M271.90302,179.06609c0,0 0.68468,6.1342 -1.83229,6.1342c-2.51697,0 -1.99162,-6.1342 -1.99162,-6.1342z" fill="url(#color-24)"></path><path d="M269.82854,179.92638c0,0 0.81827,7.33112 -2.18981,7.33112c-3.00808,0 -2.38024,-7.33112 -2.38024,-7.33112z" fill="url(#color-25)"></path><path d="M266.51469,180.48739c0,0 0.91846,8.22881 -2.45795,8.22881c-3.37642,0 -2.67169,-8.22881 -2.67169,-8.22881z" fill="url(#color-26)"></path><path d="M262.03894,180.74921c0,0 1.08546,9.72495 -2.90485,9.72495c-3.99031,0 -3.15746,-9.72495 -3.15746,-9.72495z" fill="url(#color-27)"></path><path d="M250.47396,181.72172c0,0 1.28585,11.52033 -3.44114,11.52033c-4.72699,0 -3.74036,-11.52033 -3.74036,-11.52033z" fill="url(#color-28)"></path><path d="M256.67291,181.27291c0,0 1.21906,10.92187 -3.26237,10.92187c-4.48143,0 -3.54606,-10.92187 -3.54606,-10.92187z" fill="url(#color-29)"></path></g><g data-paper-data="{&quot;index&quot;:null}"><path d="M218.6158,179.06609c0,0 0.52535,6.1342 -1.99162,6.1342c-2.51697,0 -1.83229,-6.1342 -1.83229,-6.1342z" fill="url(#color-30)"></path><path d="M221.43643,179.92638c0,0 0.62784,7.33112 -2.38024,7.33112c-3.00808,0 -2.18981,-7.33112 -2.18981,-7.33112z" fill="url(#color-31)"></path><path d="M225.30988,180.48739c0,0 0.70473,8.22881 -2.67169,8.22881c-3.37641,0 -2.45795,-8.22881 -2.45795,-8.22881z" fill="url(#color-32)"></path><path d="M230.71829,180.74921c0,0 0.83285,9.72495 -3.15746,9.72495c-3.99031,0 -2.90485,-9.72495 -2.90485,-9.72495z" fill="url(#color-33)"></path><path d="M243.40244,181.72172c0,0 0.98663,11.52033 -3.74036,11.52033c-4.72699,0 -3.44114,-11.52033 -3.44114,-11.52033z" fill="url(#color-34)"></path><path d="M236.83042,181.27291c0,0 0.93537,10.92187 -3.54606,10.92187c-4.48143,0 -3.26237,-10.92187 -3.26237,-10.92187z" fill="url(#color-35)"></path></g></g><path d="M241.74369,79.54786c35.47712,0 64.23702,26.99649 64.23702,60.29833c0,33.30185 -28.7599,60.29833 -64.23702,60.29833c-0.04744,0 2.49944,-5.26707 4.75198,-13.52403c0.45959,-1.68467 6.59398,6.08672 7.77408,-6.14332c1.1801,-12.23004 -8.20549,-6.51543 -9.3813,-9.46184c-5.51016,-13.8076 -1.81402,-46.58896 1.90131,-67.5944c3.09768,-17.51341 -5.93655,-23.87307 -5.04607,-23.87307z" fill="url(#color-36)" stroke="#000000" stroke-width="0" stroke-linecap="butt"></path><path d="M268.79594,163.75638c-12.968,0 -23.48065,-10.51265 -23.48065,-23.48065c0,-12.968 10.51265,-23.48065 23.48065,-23.48065c12.968,0 23.48065,10.51265 23.48065,23.48065c0,12.968 -10.51265,23.48065 -23.48065,23.48065z" data-paper-data="{&quot;index&quot;:null}" fill="#808080" stroke="#000000" stroke-width="0" stroke-linecap="butt"></path><path d="M270.60009,160.11125c-9.12807,0 -16.52783,-7.39977 -16.52783,-16.52784c0,-9.12808 7.39977,-16.52784 16.52783,-16.52784c9.12807,0 16.52783,7.39977 16.52783,16.52784c0,9.12808 -7.39977,16.52784 -16.52783,16.52784z" data-paper-data="{&quot;index&quot;:null}" fill="#000000" stroke="none" stroke-width="0" stroke-linecap="butt"></path><path d="M249.84948,85.70625l12.72112,-17.48821l10.0452,-5.44188l1.66696,11.66531l-4.50029,19.83469" data-paper-data="{&quot;index&quot;:null}" fill="#240f00" stroke="#000000" stroke-width="0.5" stroke-linecap="round"></path></g></g></svg>