<svg version="1.1" xmlns="http://www.w3.org/2000/svg" xmlns:xlink="http://www.w3.org/1999/xlink" width="130.47404" height="275.15553" viewBox="0,0,130.47404,275.15553"><g transform="translate(-174.84012,-38.457)"><g data-paper-data="{&quot;isPaintingLayer&quot;:true}" fill-rule="nonzero" stroke-linejoin="miter" stroke-miterlimit="10" stroke-dasharray="" stroke-dashoffset="0" style="mix-blend-mode: normal"><path d="M179.2839,313.61253v-267.22501h123.18203v267.22501z" fill-opacity="0.01" fill="#000000" stroke="none" stroke-width="0" stroke-linecap="butt"></path><path d="M206.75023,307.83333l15.14285,-131.8421l37.78325,-0.15789l13.57389,132z" fill="#804400" stroke="#000000" stroke-width="2" stroke-linecap="butt"></path><path d="M219.70044,204.11269l3.12142,-26.32765l35.83075,-0.14203l2.76735,26.1059c0,0 -7.51543,4.19603 -21.55904,4.50964c-12.48458,0.27879 -20.16049,-4.14586 -20.16049,-4.14586z" fill="#663600" stroke="#000000" stroke-width="0" stroke-linecap="butt"></path><path d="M175.84013,136.84617c0,-33.30185 28.7599,-60.29833 64.23702,-60.29833c35.47712,0 64.23702,26.99649 64.23702,60.29833c0,33.30185 -28.7599,60.29833 -64.23702,60.29833c-35.47712,0 -64.23702,-26.99649 -64.23702,-60.29833z" fill="#804400" stroke="#000000" stroke-width="2" stroke-linecap="butt"></path><path d="M176.56318,136.90006c0,-0.72799 5.20666,55.91939 63.36046,56.93429c55.56352,0.9697 63.51358,-57.95314 63.51358,-56.93429c0,32.80479 -28.40173,59.39833 -63.43702,59.39833c-35.03529,0 -63.43702,-26.59354 -63.43702,-59.39833z" fill="#663600" stroke="#000000" stroke-width="0" stroke-linecap="butt"></path><path d="M189.39036,137.27569c0,-12.968 10.51265,-23.48065 23.48065,-23.48065c12.968,0 23.48065,10.51265 23.48065,23.48065c0,12.968 -10.51265,23.48065 -23.48065,23.48065c-12.968,0 -23.48065,-10.51265 -23.48065,-23.48065z" fill="#ffffff" stroke="#000000" stroke-width="2" stroke-linecap="butt"></path><path d="M267.12933,160.75627c-12.968,0 -23.48065,-10.51265 -23.48065,-23.48065c0,-12.968 10.51265,-23.48065 23.48065,-23.48065c12.968,0 23.48065,10.51265 23.48065,23.48065c0,12.968 -10.51265,23.48065 -23.48065,23.48065z" data-paper-data="{&quot;index&quot;:null}" fill="#ffffff" stroke="#000000" stroke-width="2" stroke-linecap="butt"></path><path d="M230.53909,158.70907l5.6,-17.6" fill="none" stroke="#000000" stroke-width="2" stroke-linecap="round"></path><path d="M247.33905,159.70908l-3.6,-20.4" fill="none" stroke="#000000" stroke-width="2" stroke-linecap="round"></path><path d="M196.02235,137.53338c0,-9.62512 7.80271,-17.42784 17.42783,-17.42784c9.62511,0 17.42783,7.80271 17.42783,17.42784c0,9.62512 -7.80271,17.42784 -17.42783,17.42784c-9.62511,0 -17.42783,-7.80271 -17.42783,-17.42784z" data-paper-data="{&quot;index&quot;:null}" fill="#000000" stroke="none" stroke-width="0" stroke-linecap="butt"></path><path d="M201.90339,104.98554c0,0 6.90887,-4.89881 12.04053,-5.89021c5.13167,-0.99139 12.29664,1.18846 12.29664,1.18846c0,0 -8.02939,-0.37933 -11.99241,0.3863c-4.14151,0.80011 -12.34477,4.31545 -12.34477,4.31545z" data-paper-data="{&quot;index&quot;:null}" fill="#000000" stroke="none" stroke-width="0" stroke-linecap="butt"></path><path d="M215.26124,84.63736c-0.65217,-2.3586 0.64903,-9.52483 -0.13685,-16.41631c-0.94093,-8.25123 -3.91998,-16.19529 -3.91998,-16.19529c0,0 7.1384,4.38135 10.02502,8.34521c3.57611,4.91066 8.68321,14.69876 9.14294,14.89142c0.40645,0.17033 3.57851,-9.8537 5.45414,-18.92551c1.53944,-7.44573 1.87919,-14.25003 1.87919,-14.25003c0,0 2.59647,4.81855 4.55951,11.08235c3.01546,9.62191 5.8959,22.20087 6.18336,22.42653c0.43532,0.34171 5.70016,-9.3141 9.27627,-14.22476c2.88661,-3.96386 12.42502,-4.14521 12.42502,-4.14521c0,0 -5.20766,6.94881 -5.91998,13.19528c-0.78588,6.89147 1.31532,11.85771 0.66315,14.21631" data-paper-data="{&quot;index&quot;:null}" fill="#804400" stroke="#000000" stroke-width="2" stroke-linecap="butt"></path><path d="M248.14636,179.99256c0,4.36305 -3.98466,7.9 -8.9,7.9c-4.91534,0 -8.9,-3.53695 -8.9,-7.9c0,-4.36305 3.98466,-7.9 8.9,-7.9c4.91534,0 8.9,3.53695 8.9,7.9z" fill="#000000" stroke="#000000" stroke-width="2" stroke-linecap="butt"></path><path d="M278.25086,104.98554c0,0 -8.20326,-3.51534 -12.34477,-4.31545c-3.96302,-0.76563 -11.99241,-0.3863 -11.99241,-0.3863c0,0 7.16497,-2.17985 12.29664,-1.18846c5.13166,0.9914 12.04053,5.89021 12.04053,5.89021z" data-paper-data="{&quot;index&quot;:null}" fill="#000000" stroke="none" stroke-width="0" stroke-linecap="butt"></path><path d="M266.55012,154.96122c-9.62512,0 -17.42783,-7.80272 -17.42783,-17.42784c0,-9.62513 7.80272,-17.42784 17.42783,-17.42784c9.62512,0 17.42783,7.80272 17.42783,17.42784c0,9.62513 -7.80272,17.42784 -17.42783,17.42784z" data-paper-data="{&quot;index&quot;:null}" fill="#000000" stroke="none" stroke-width="0" stroke-linecap="butt"></path></g></g></svg>